<?xml version="1.0" encoding="utf-8"?>
<!-- Generator: Adobe Illustrator 25.2.3, SVG Export Plug-In . SVG Version: 6.00 Build 0)  -->
<svg version="1.1" id="Layer_1" xmlns="http://www.w3.org/2000/svg" xmlns:xlink="http://www.w3.org/1999/xlink" x="0px" y="0px"
	 viewBox="0 0 802.5 189.8" style="enable-background:new 0 0 802.5 189.8;" xml:space="preserve">
<style type="text/css">
	.st0{fill:url(#SVGID_1_);}
	.st1{fill:url(#SVGID_2_);}
	.st2{fill:url(#SVGID_3_);}
	.st3{fill:url(#SVGID_4_);}
	.st4{fill:url(#SVGID_5_);}
	.st5{fill:#2DE1D0;}
	.st6{fill:url(#SVGID_6_);}
	.st7{fill:url(#SVGID_7_);}
	.st8{fill:url(#SVGID_8_);}
</style>
<linearGradient id="SVGID_1_" gradientUnits="userSpaceOnUse" x1="222.2622" y1="131.5765" x2="317.2213" y2="131.5765">
	<stop  offset="0" style="stop-color:#1BA9CE"/>
	<stop  offset="1" style="stop-color:#1FB1DC"/>
</linearGradient>
<path class="st0" d="M268.1,78.7c6.8-0.1,13.5,0.7,20.1,2.2c5.6,1.3,10.8,3.6,15.5,6.8c4.2,3,7.6,7,9.9,11.7
	c2.4,5.2,3.6,10.9,3.5,16.7v45.8c0.1,3.2-1,6.3-3,8.7c-2,2.3-4.4,4.3-7.1,5.8c-8.9,5.3-21.4,8-37.4,8c-6.6,0.1-13.1-0.6-19.5-2
	c-5.3-1.2-10.4-3.2-14.9-6.1c-4-2.6-7.4-6.2-9.6-10.4c-2.3-4.6-3.5-9.6-3.4-14.7c0-9.4,2.8-16.6,8.4-21.7c5.6-5.1,14.3-8.2,26-9.4
	l26.8-2.9v-1.4c0.2-3.6-1.9-7-5.2-8.5c-3.5-1.7-8.5-2.6-15-2.6c-5.1,0-10.2,0.5-15.1,1.6c-4.5,1-9,2.3-13.3,4.1
	c-2-1.5-3.5-3.4-4.5-5.6c-1.2-2.4-1.8-5.1-1.9-7.9c-0.2-3.1,0.7-6.1,2.5-8.6c2.1-2.4,4.9-4.3,7.9-5.4c4.5-1.6,9.2-2.7,14-3.3
	C257.9,79.1,263,78.7,268.1,78.7z M269.8,159.1c2.6,0,5.1-0.3,7.7-0.7c2.2-0.3,4.3-1,6.2-2v-16.3l-14.7,1.2c-3.3,0.1-6.5,1-9.4,2.4
	c-2.3,1.1-3.8,3.5-3.7,6.1c-0.1,2.6,1.1,5.1,3.2,6.6C261.1,158.2,264.7,159.1,269.8,159.1z"/>
<linearGradient id="SVGID_2_" gradientUnits="userSpaceOnUse" x1="331.11" y1="131.7348" x2="483.0699" y2="131.7348">
	<stop  offset="0" style="stop-color:#1BA9CE"/>
	<stop  offset="1" style="stop-color:#1FB1DC"/>
</linearGradient>
<path class="st1" d="M393.7,178.1c-2.3,1.8-4.9,3.2-7.8,4c-3.8,1.1-7.7,1.6-11.6,1.5c-4.9,0.1-9.9-0.7-14.5-2.4
	c-4.1-1.6-6.8-3.8-8.2-6.6c-2.1-5-3.9-10.2-5.2-15.5c-2-7.1-3.9-14.9-5.8-23.3c-1.9-8.5-3.7-17-5.4-25.8c-1.7-8.7-3-16.4-4-23.1
	c2.2-2.1,4.8-3.8,7.7-5c3.3-1.5,6.9-2.2,10.5-2.2c4.8,0,8.7,1.1,11.8,3.2s4.9,5.8,5.6,10.9c1.3,10.4,2.5,18.9,3.5,25.7
	c1,6.7,1.8,12.3,2.4,16.6c0.6,4.3,1.1,7.6,1.4,9.8c0.3,2.2,0.6,4.1,0.9,5.4h0.8c0.4-2.2,1.1-5.4,2.1-9.5c1-4.2,2.2-8.9,3.6-14.2
	c1.4-5.3,2.8-11.1,4.3-17.3c1.5-6.2,3-12.4,4.5-18.5c2.6-1.4,5.3-2.6,8.1-3.5c3.2-0.9,6.6-1.3,9.9-1.2c4.2-0.1,8.4,0.7,12.3,2.2
	c3.1,1.2,5.5,3.8,6.5,7c1.6,6,3.2,11.8,4.7,17.5c1.5,5.7,2.9,10.9,4.1,15.8l3.3,12.9c1,3.8,1.6,6.7,2,8.9h1
	c1.5-10.5,3-21.4,4.4-32.7c1.4-11.3,2.8-22.8,4-34.6c2.4-1.5,5-2.6,7.8-3.3c2.7-0.7,5.4-1,8.2-1c4.2-0.2,8.3,0.9,11.9,3.1
	c3.1,2,4.7,5.6,4.7,10.6c-0.1,3.3-0.4,6.6-1,9.8c-0.7,4.4-1.6,9.3-2.7,14.7c-1.1,5.5-2.4,11.2-3.8,17.2c-1.4,6-2.9,11.8-4.3,17.4
	c-1.4,5.6-2.8,10.6-4.1,15.1c-1.3,4.5-2.4,8-3.4,10.4c-1.9,1.6-4.8,3-8.8,4c-4.1,1-8.4,1.6-12.7,1.5c-11.4,0-18.2-2.9-20.2-8.6
	c-0.8-2.5-1.8-5.6-3.1-9.3s-2.5-7.9-3.9-12.4c-1.3-4.5-2.6-9.2-3.9-14c-1.3-4.8-2.3-9.5-3.1-14c-1,4.8-2.1,9.7-3.5,14.8
	c-1.4,5.1-2.8,10.1-4.2,14.9c-1.4,4.8-2.8,9.3-4,13.3S394.4,175.7,393.7,178.1z"/>
<linearGradient id="SVGID_3_" gradientUnits="userSpaceOnUse" x1="493.8726" y1="131.5765" x2="588.831" y2="131.5765">
	<stop  offset="0" style="stop-color:#1BA9CE"/>
	<stop  offset="1" style="stop-color:#1FB1DC"/>
</linearGradient>
<path class="st2" d="M539.7,78.7c6.8-0.1,13.5,0.7,20.1,2.2c5.6,1.3,10.8,3.6,15.5,6.8c4.2,3,7.6,7,9.9,11.7
	c2.4,5.2,3.6,10.9,3.5,16.7v45.8c0.1,3.2-1,6.3-3,8.7c-2,2.3-4.4,4.3-7.1,5.8c-8.9,5.3-21.3,8-37.4,8c-6.6,0.1-13.1-0.6-19.5-2
	c-5.3-1.2-10.4-3.2-14.9-6.1c-4-2.6-7.4-6.2-9.6-10.4c-2.3-4.6-3.5-9.6-3.4-14.7c0-9.4,2.8-16.6,8.4-21.7c5.6-5.1,14.3-8.2,26-9.4
	l26.8-2.9v-1.4c0.2-3.6-1.9-7-5.2-8.5c-3.5-1.7-8.5-2.6-15-2.6c-5.1,0-10.2,0.5-15.1,1.6c-4.5,1-9,2.3-13.3,4.1
	c-2-1.5-3.5-3.4-4.5-5.6c-1.2-2.5-1.8-5.1-1.8-7.9c-0.2-3,0.7-6,2.5-8.5c2.1-2.4,4.8-4.3,7.9-5.5c4.5-1.6,9.2-2.7,14-3.3
	C529.5,79.1,534.6,78.7,539.7,78.7z M541.4,159.1c2.6,0,5.1-0.3,7.7-0.7c2.2-0.3,4.3-1,6.2-2v-16.3l-14.7,1.2
	c-3.3,0.1-6.5,1-9.4,2.4c-2.3,1.1-3.8,3.5-3.7,6.1c-0.1,2.6,1.1,5.1,3.2,6.6C532.8,158.2,536.3,159.1,541.4,159.1z"/>
<linearGradient id="SVGID_4_" gradientUnits="userSpaceOnUse" x1="605.2022" y1="131.5765" x2="700.1013" y2="131.5765">
	<stop  offset="0" style="stop-color:#1BA9CE"/>
	<stop  offset="1" style="stop-color:#1FB1DC"/>
</linearGradient>
<path class="st3" d="M651,78.7c6.8-0.1,13.5,0.7,20.2,2.2c5.6,1.3,10.8,3.6,15.5,6.8c4.2,3,7.6,7,9.9,11.7
	c2.4,5.2,3.6,10.9,3.5,16.7v45.8c0.1,3.2-0.9,6.3-3,8.7c-2,2.3-4.4,4.3-7,5.8c-8.9,5.3-21.3,8-37.4,8c-6.6,0.1-13.1-0.6-19.5-2
	c-5.3-1.2-10.4-3.2-14.9-6.1c-4-2.6-7.4-6.2-9.6-10.4c-2.3-4.6-3.5-9.6-3.4-14.7c0-9.4,2.8-16.6,8.4-21.7c5.6-5.1,14.3-8.2,26-9.4
	l26.8-2.9v-1.4c0.2-3.6-1.9-7-5.2-8.5c-3.5-1.7-8.5-2.6-15-2.6c-5.1,0-10.2,0.5-15.2,1.6c-4.5,1-9,2.3-13.3,4.1
	c-2-1.5-3.5-3.4-4.5-5.6c-1.2-2.5-1.8-5.1-1.8-7.9c-0.2-3,0.7-6,2.6-8.5c2.1-2.4,4.8-4.3,7.8-5.4c4.5-1.6,9.2-2.7,14-3.3
	C640.8,79.1,645.9,78.7,651,78.7z M652.6,159.1c2.6,0,5.1-0.3,7.7-0.7c2.2-0.3,4.3-1,6.2-2v-16.3l-14.7,1.2c-3.3,0.1-6.5,1-9.4,2.4
	c-2.3,1.1-3.8,3.5-3.7,6.1c-0.1,2.6,1.1,5.1,3.2,6.6C644,158.2,647.6,159.1,652.6,159.1z"/>
<linearGradient id="SVGID_5_" gradientUnits="userSpaceOnUse" x1="52.14" y1="73.3502" x2="211.8815" y2="73.3502" gradientTransform="matrix(1 0 0 -1 0 192)">
	<stop  offset="0" style="stop-color:#2DE1D0"/>
	<stop  offset="1" style="stop-color:#1AA4CE"/>
</linearGradient>
<path class="st4" d="M211.7,106.7C210.6,74.1,189,59,173.6,52.3c-7.4-3.2-15.4-4.8-23.5-4.8H61.3l0.2,12.8l10.9-0.1l0.1,9.2
	l-10.4-0.3v13.1l10.2,0.2l0.1,17l-10-0.2l-0.1,10.9l-10.2-0.1v13.4l21.6,0.3v10.6h8.9l0.3,25.1l-12.7,0.1l0.2,11.9l13.3-0.4l0.4,7.7
	l-24.9,0.4v10.7h90.8c7.6,0,15.1-1.4,22.1-4.2C204.8,172.6,213.2,152.1,211.7,106.7z M82.9,121.1h-8.3v-9h8.3V121.1z M84.5,60.3h11
	v9.2h-11V60.3z M106.5,146.3h-12v-9.9h12V146.3z M130.3,183.1h-11v-10.9h11V183.1z M178.5,141.3c-1.3,8.2-3.6,13.9-7.6,17.5
	c-4.8,4.2-10.9,6.5-17.2,6.4h-38.6l-0.6-91.7h34.8c13.2,0,25.1,8.7,28.5,21.5l1,3.6c0.4,1.5-0.3-1.5,0,0
	C180.2,104.9,181.5,123.1,178.5,141.3L178.5,141.3z"/>
<rect x="32" y="105.7" class="st5" width="11.9" height="11.9"/>
<rect x="42.6" y="80.7" class="st5" width="11.9" height="12.7"/>
<rect x="42.6" y="60.3" class="st5" width="11.2" height="11.2"/>
<rect x="30.9" y="70.4" class="st5" width="11.7" height="11.7"/>
<rect x="9.9" y="83.1" class="st5" width="12.2" height="12.2"/>
<rect x="21.1" y="94.1" class="st5" width="11.9" height="11.9"/>
<rect x="9.9" y="105.7" class="st5" width="12" height="12"/>
<rect y="116.6" class="st5" width="12.3" height="13.1"/>
<rect x="24.6" y="116.5" class="st5" width="11.8" height="11.8"/>
<rect x="24.6" y="128.3" class="st5" width="21.9" height="10.5"/>
<rect x="12.9" y="138.8" class="st5" width="12.1" height="12.1"/>
<rect x="25" y="150.1" class="st5" width="12.3" height="12.3"/>
<rect x="36.4" y="166.6" class="st5" width="24.2" height="11.7"/>
<rect x="48.5" y="156.2" class="st5" width="12.1" height="11.1"/>
<rect x="59.6" y="149.1" class="st5" width="11.6" height="12.7"/>
<rect x="49.5" y="138.1" class="st5" width="12.1" height="12.1"/>
<linearGradient id="SVGID_6_" gradientUnits="userSpaceOnUse" x1="720.84" y1="138.33" x2="777.78" y2="138.33" gradientTransform="matrix(1 0 0 -1 0 192)">
	<stop  offset="0" style="stop-color:#1BA9CE"/>
	<stop  offset="1" style="stop-color:#1AA4CE"/>
</linearGradient>
<path class="st6" d="M720.8,53.7c0,15.7,12.7,28.5,28.5,28.5c15.7,0,28.5-12.7,28.5-28.5S765,25.2,749.3,25.2l0,0
	C733.6,25.2,720.8,37.9,720.8,53.7z M758.9,40.1c0.4-0.2,0.9-0.3,1.4-0.3c0.4,0,0.8,0.1,1.2,0.3c0.5,0.2,0.9,0.4,1.2,0.8
	c0.3,0.3,0.5,0.7,0.5,1.2c0,0.2-0.1,0.5-0.2,0.7l-6.8,13.5h3.3v-2.7c0-0.6,0.4-1.2,0.9-1.4c1.3-0.6,2.8-0.6,4.1,0
	c0.6,0.2,0.9,0.8,0.9,1.4v2.7h1.6c0.6,0,1.1,0.3,1.4,0.9c0.3,0.6,0.4,1.2,0.4,1.9c0,0.7-0.2,1.3-0.6,1.9c-0.2,0.5-0.7,0.8-1.3,0.9
	h-1.6v4c0,0.6-0.4,1.2-0.9,1.4c-1.3,0.6-2.8,0.6-4.1,0c-0.6-0.2-0.9-0.8-0.9-1.4v-4h-8.9c-1.1,0.1-2-0.8-2-1.8c0-0.1,0-0.2,0-0.2
	c0-0.2,0-0.4,0.1-0.5c0-0.2,0.1-0.4,0.2-0.6l8.8-17.3C758,40.8,758.4,40.3,758.9,40.1L758.9,40.1z M748.7,51.3
	c-0.6,1.1-1.3,2.1-2.2,3c-0.9,0.9-1.8,1.7-2.8,2.4c-1,0.7-2,1.4-2.8,2c-0.8,0.5-1.5,1.1-2.2,1.7c-0.5,0.4-0.8,1-0.9,1.7v0.3h10
	c0.5,0,1,0.3,1.3,0.8c0.4,0.5,0.5,1.2,0.5,1.8c0,0.6-0.2,1.2-0.5,1.7c-0.3,0.5-0.7,0.8-1.3,0.8h-13.6c-0.6,0-1.2-0.2-1.7-0.5
	c-0.5-0.2-0.9-0.7-0.9-1.3v-3.7c0-1,0.3-2,0.9-2.8c0.6-0.9,1.4-1.8,2.2-2.5c0.9-0.8,1.9-1.5,2.9-2.3s2-1.5,2.9-2.2
	c0.8-0.7,1.6-1.4,2.2-2.2c0.5-0.6,0.9-1.5,0.9-2.3c0-0.4-0.1-0.9-0.3-1.2c-0.2-0.4-0.5-0.8-0.9-1c-0.5-0.3-1.1-0.5-1.7-0.4
	c-0.7,0-1.4,0.2-2,0.7c-0.6,0.6-0.9,1.4-0.9,2.2c0,0.6-0.3,1.2-0.8,1.5c-0.7,0.5-1.5,0.7-2.3,0.7c-0.7,0-1.4-0.2-1.9-0.6
	c-0.6-0.7-0.9-1.6-0.8-2.4c0-1.4,0.4-2.8,1.2-4c0.8-1.1,1.9-2,3.2-2.5c2.7-1.2,5.7-1.1,8.4,0.1c1.3,0.6,2.5,1.5,3.3,2.7
	c0.9,1.3,1.4,2.8,1.3,4.3C749.5,48.9,749.2,50.2,748.7,51.3z"/>
<linearGradient id="SVGID_7_" gradientUnits="userSpaceOnUse" x1="696.1533" y1="138.2755" x2="802.5591" y2="138.2755" gradientTransform="matrix(1 0 0 -1 0 192)">
	<stop  offset="0" style="stop-color:#1FB1DC"/>
	<stop  offset="1" style="stop-color:#1AA4CE"/>
</linearGradient>
<path class="st7" d="M802.3,49.1C800,19.8,774.4-2,745.1,0.3c-29.3,2.3-51.1,27.9-48.8,57.2c0.2,2.3,0.5,4.6,1,6.9
	c0.4,1.6,2,2.6,3.6,2.3l0,0c1.6-0.4,2.6-2,2.3-3.6c0,0,0,0,0,0c-5.5-25.5,10.7-50.6,36.2-56.1s50.6,10.7,56.1,36.2
	s-10.7,50.6-36.2,56.1c-13.6,2.9-27.8-0.3-38.8-8.8l8.8,0.1c1.7,0,3-1.3,3-3c0-1.7-1.3-3-3-3L713,84.4c-1.7,0-3,1.3-3,3
	c0,0.1,0,0.2,0,0.3l1.9,16.9c0.2,1.6,1.5,2.7,3.1,2.7h0.2c1.6-0.2,2.8-1.7,2.6-3.3l-1-8.8c23.2,18,56.6,13.7,74.6-9.5
	C799.5,75.3,803.4,62.3,802.3,49.1L802.3,49.1z"/>
<linearGradient id="SVGID_8_" gradientUnits="userSpaceOnUse" x1="706.5638" y1="154.745" x2="752.82" y2="154.745" gradientTransform="matrix(1 0 0 -1 0 192)">
	<stop  offset="3.000000e-02" style="stop-color:#1FB1DC"/>
	<stop  offset="1" style="stop-color:#1AA4CE"/>
</linearGradient>
<path class="st8" d="M710.9,64.3L710.9,64.3c1.7-0.2,2.8-1.7,2.5-3.3c0-0.1,0-0.1,0-0.2c-4.3-19.8,8.3-39.4,28.2-43.7
	c2.5-0.5,5.1-0.8,7.7-0.8h0.5c1.7,0,3-1.3,3-3v0c0-1.6-1.3-3-2.9-3h-0.6c-23.6,0-42.7,19.1-42.7,42.7c0,3.1,0.3,6.1,1,9.1
	C707.9,63.5,709.3,64.5,710.9,64.3z"/>
</svg>
